solid OpenSCAD_Model
  facet normal -0 0 1
    outer loop
      vertex -5 2 1.1
      vertex 5 -2 1.1
      vertex 5 2 1.1
    endloop
  endfacet
  facet normal 0 0 1
    outer loop
      vertex 5 -2 1.1
      vertex -5 2 1.1
      vertex -5 -2 1.1
    endloop
  endfacet
  facet normal 0 0 -1
    outer loop
      vertex -5 -2 -1.1
      vertex 5 2 -1.1
      vertex 5 -2 -1.1
    endloop
  endfacet
  facet normal -0 0 -1
    outer loop
      vertex 5 2 -1.1
      vertex -5 -2 -1.1
      vertex -5 2 -1.1
    endloop
  endfacet
  facet normal 0 -1 0
    outer loop
      vertex -5 -2 -1.1
      vertex 5 -2 1.1
      vertex -5 -2 1.1
    endloop
  endfacet
  facet normal 0 -1 -0
    outer loop
      vertex 5 -2 1.1
      vertex -5 -2 -1.1
      vertex 5 -2 -1.1
    endloop
  endfacet
  facet normal 1 -0 0
    outer loop
      vertex 5 -2 1.1
      vertex 5 2 -1.1
      vertex 5 2 1.1
    endloop
  endfacet
  facet normal 1 0 0
    outer loop
      vertex 5 2 -1.1
      vertex 5 -2 1.1
      vertex 5 -2 -1.1
    endloop
  endfacet
  facet normal 0 1 -0
    outer loop
      vertex 5 2 -1.1
      vertex -5 2 1.1
      vertex 5 2 1.1
    endloop
  endfacet
  facet normal 0 1 0
    outer loop
      vertex -5 2 1.1
      vertex 5 2 -1.1
      vertex -5 2 -1.1
    endloop
  endfacet
  facet normal -1 0 0
    outer loop
      vertex -5 -2 -1.1
      vertex -5 2 1.1
      vertex -5 2 -1.1
    endloop
  endfacet
  facet normal -1 -0 0
    outer loop
      vertex -5 2 1.1
      vertex -5 -2 -1.1
      vertex -5 -2 1.1
    endloop
  endfacet
endsolid OpenSCAD_Model
